REM MD5 07fcceb74f47cc4370b8b269ef73ec39
FILE "UEFA Champions League - Season 2000-2001 (Italy).bin" BINARY
  TRACK 01 MODE2/2352
    INDEX 01 00:00:00
  TRACK 02 AUDIO
    INDEX 00 35:06:67
    INDEX 01 35:08:67
  TRACK 03 AUDIO
    INDEX 00 38:52:32
    INDEX 01 38:54:32
  TRACK 04 AUDIO
    INDEX 00 42:29:40
    INDEX 01 42:31:40
REM LEADOUT 46:06:48
